# xmcd
#
# Track frame offsets: 
#        187
#        854
#        23992
#        44459
#        66264
#        88432
#        108462
#        111242
#        131654
#        151919
#        177362
#        196199
#        217184
#        236917
#        261267
#        279994
#
# Disc length: 4249 seconds
#
# Revision: 0
# Processed by: cddbd v1.5.2PL0 Copyright (c) Steve Scherf et al.
# Submitted via: ExactAudioCopyFreeDBPlugin 1.0
#
DISCID=e8109710
DTITLE=Don-e - Unbreakable
DYEAR=1992
DGENRE=Soul
TTITLE0=Intro
TTITLE1=Welcome To My World
TTITLE2=Oh My Gosh
TTITLE3=Love Makes The World Go Round
TTITLE4=Unbreakable
TTITLE5=Someday Somehow
TTITLE6=Interlude
TTITLE7=Undercover Lover
TTITLE8=Stop What You're Doing
TTITLE9=Me Oh My
TTITLE10=Emancipate Our Love
TTITLE11=Peace In The World
TTITLE12=Never Ever
TTITLE13=So Fine
TTITLE14=U Don't Have 2 Cry
TTITLE15=Love Makes The World Go Round (Morales Mix)
EXTD=
EXTT0=
EXTT1=
EXTT2=
EXTT3=
EXTT4=
EXTT5=
EXTT6=
EXTT7=
EXTT8=
EXTT9=
EXTT10=
EXTT11=
EXTT12=
EXTT13=
EXTT14=
EXTT15=
PLAYORDER=
